# xmcd
#
# Track frame offsets: 
#        150
#        18746
#        36720
#        54832
#        66730
#
# Disc length: 1071 seconds
#
# Revision: 1
# Processed by: cddbd v1.5.2PL0 Copyright (c) Steve Scherf et al.
# Submitted via: ExactAudioCopy v1.0b1
#
DISCID=4a042d05
DTITLE=Scotty McCreery - American Idol Season 10 Highlights
DYEAR=2011
DGENRE=Country
TTITLE0=I Love You This Big
TTITLE1=The River
TTITLE2=Amazed
TTITLE3=Gone
TTITLE4=Are You Gonna Kiss Me or Not
EXTD=
EXTT0=
EXTT1=
EXTT2=
EXTT3=
EXTT4=
PLAYORDER=
